#!OML:ASF X:\für Bonn\!DataBase\2005_08_11_Bastian_Final\c3d\Bastian.ASF
:FULLY-SPECIFIED
:DEGREES
2253
root 0.674701 17.0538 14.4508 173.823 40.8071 -175.929
lowerback 16.1952 -1.43611 5.6154
upperback 7.41784 -0.231275 1.33376
thorax -1.21551 0.330098 -1.73585
lowerneck -7.5966 4.77235 1.21878
upperneck -9.9961 7.10358 1.50814
head -1.88259 3.76495 0.299994
rclavicle -5.37713e-014 3.77691e-014
rhumerus -225.538 -177.322 96.5322
rradius 106.853
rwrist -170.99
rhand -5.26507 -0.388492
rfingers 7.12502
rthumb 20.5387 -29.322
lclavicle -5.37713e-014 3.77691e-014
lhumerus -39.9467 -4.72215 88.3705
lradius 76.8039
lwrist 220.375
lhand -30.2136 16.4423
lfingers 7.12502
lthumb -3.52373 46.3929
rfemur 13.5228 -2.21516 18.8857
rtibia 25.9835
rfoot -24.8676 -16.8414
rtoes -23.5407
lfemur -20.5165 9.09805 -11.5119
ltibia 37.6618
lfoot -2.07914 -1.39459
ltoes -20.1634
2254
root 0.683421 17.0516 14.419 174.017 40.8127 -175.837
lowerback 15.9273 -1.42318 5.74156
upperback 7.41495 -0.222684 1.35565
thorax -1.0766 0.337048 -1.78514
lowerneck -7.69868 4.74815 1.09469
upperneck -9.92472 7.07588 1.55295
head -1.84852 3.75534 0.337914
rclavicle -1.5704e-014 -3.22031e-014
rhumerus -225.524 -177.283 96.5705
rradius 107.047
rwrist -170.864
rhand -5.24632 -0.291461
rfingers 7.12502
rthumb 20.5567 -29.2231
lclavicle -1.5704e-014 -3.22031e-014
lhumerus -40.18 -4.54664 88.007
lradius 76.7575
lwrist 220.386
lhand -29.9634 16.7899
lfingers 7.12502
lthumb -3.28213 46.7444
rfemur 13.5888 -2.0512 18.9832
rtibia 25.8218
rfoot -24.8543 -17.0287
rtoes -23.6687
lfemur -20.6835 9.22944 -11.4858
ltibia 37.9845
lfoot -2.59826 -1.57817
ltoes -20.1322
2255
root 0.692961 17.0477 14.3844 174.18 40.8169 -175.781
lowerback 15.6656 -1.40238 5.80746
upperback 7.41136 -0.211342 1.40238
thorax -0.941342 0.343806 -1.77486
lowerneck -7.72531 4.71735 0.916444
upperneck -9.912 7.04355 1.56616
head -1.84656 3.74436 0.371539
rclavicle -1.12512e-013 7.51406e-014
rhumerus -225.454 -177.292 96.6289
rradius 107.223
rwrist -170.766
rhand -5.12302 -0.150891
rfingers 7.12502
rthumb 20.6752 -29.0696
lclavicle -1.12512e-013 7.51406e-014
lhumerus -40.445 -4.3423 87.6792
lradius 76.6205
lwrist 220.464
lhand -29.7242 17.1061
lfingers 7.12502
lthumb -3.05109 47.064
rfemur 13.6806 -1.87219 19.054
rtibia 25.6459
rfoot -24.8396 -17.2348
rtoes -23.7454
lfemur -20.8451 9.33731 -11.4826
ltibia 38.3242
lfoot -3.13589 -1.74899
ltoes -20.4886
2256
root 0.702816 17.0429 14.3472 174.35 40.8112 -175.687
lowerback 15.4434 -1.3948 5.91626
upperback 7.39909 -0.208498 1.43942
thorax -0.836425 0.346786 -1.7975
lowerneck -7.73696 4.68953 0.735387
upperneck -9.89289 7.01715 1.61229
head -1.84651 3.73564 0.415545
rclavicle -4.95968e-014 -3.45885e-014
rhumerus -225.352 -177.336 96.6481
rradius 107.433
rwrist -170.708
rhand -4.94472 0.0724422
rfingers 7.12502
rthumb 20.8465 -28.8276
lclavicle -4.95968e-014 -3.45885e-014
lhumerus -40.7841 -4.03193 87.3049
lradius 76.4263
lwrist 220.411
lhand -29.5297 17.3587
lfingers 7.12502
lthumb -2.8633 47.3192
rfemur 13.808 -1.66012 19.1675
rtibia 25.4645
rfoot -24.858 -17.4609
rtoes -23.8891
lfemur -21.0039 9.46555 -11.4446
ltibia 38.6768
lfoot -3.66969 -1.95135
ltoes -21.1167
2257
root 0.713592 17.0379 14.3083 174.539 40.7993 -175.592
lowerback 15.1872 -1.38462 5.99327
upperback 7.4139 -0.207926 1.48797
thorax -0.684885 0.350665 -1.78968
lowerneck -7.78426 4.66578 0.547757
upperneck -9.89934 7.0007 1.65438
head -1.84908 3.73384 0.460045
rclavicle -2.3556e-014 3.97569e-016
rhumerus -225.127 -177.397 96.6558
rradius 107.606
rwrist -170.754
rhand -4.82366 0.0793463
rfingers 7.12502
rthumb 20.9628 -28.8078
lclavicle -2.3556e-014 3.97569e-016
lhumerus -41.1017 -3.67845 86.9317
lradius 76.1527
lwrist 220.32
lhand -29.2798 17.5739
lfingers 7.12502
lthumb -2.62196 47.5376
rfemur 13.9234 -1.37455 19.3188
rtibia 25.2743
rfoot -24.8722 -17.7811
rtoes -23.9997
lfemur -21.1913 9.53868 -11.3973
ltibia 39.0328
lfoot -4.22517 -2.08258
ltoes -21.7097
2258
root 0.724952 17.0319 14.2671 174.717 40.7845 -175.5
lowerback 14.9522 -1.37338 6.06727
upperback 7.43188 -0.205314 1.51749
thorax -0.54089 0.355991 -1.80042
lowerneck -7.85004 4.6447 0.452378
upperneck -9.88642 6.9775 1.64677
head -1.83683 3.72647 0.475098
rclavicle -5.1684e-015 -3.02153e-014
rhumerus -224.83 -177.444 96.613
rradius 107.801
rwrist -170.842
rhand -4.76007 0.150616
rfingers 7.12502
rthumb 21.0239 -28.7298
lclavicle -5.1684e-015 -3.02153e-014
lhumerus -41.4588 -3.35065 86.4854
lradius 75.8707
lwrist 220.279
lhand -29.0748 17.6513
lfingers 7.12502
lthumb -2.42398 47.6173
rfemur 14.0611 -1.15906 19.436
rtibia 25.0734
rfoot -24.8759 -18.0529
rtoes -24.2097
lfemur -21.3721 9.58927 -11.3481
ltibia 39.4003
lfoot -4.78646 -2.17718
ltoes -22.4201
2259
root 0.736465 17.025 14.2248 174.913 40.7428 -175.401
lowerback 14.7343 -1.35574 6.15349
upperback 7.45393 -0.192355 1.51406
thorax -0.400689 0.367583 -1.85404
lowerneck -8.01879 4.61301 0.441632
upperneck -9.82999 6.93758 1.66731
head -1.79148 3.71007 0.488631
rclavicle 1.53064e-014 -1.23246e-014
rhumerus -224.488 -177.423 96.4758
rradius 107.999
rwrist -170.854
rhand -4.72362 -0.00926832
rfingers 7.12502
rthumb 21.0589 -28.8858
lclavicle 1.53064e-014 -1.23246e-014
lhumerus -41.8037 -3.11994 85.9702
lradius 75.527
lwrist 220.285
lhand -28.8481 17.6832
lfingers 7.12502
lthumb -2.20505 47.6515
rfemur 14.1986 -0.866763 19.5984
rtibia 24.8669
rfoot -24.9044 -18.3937
rtoes -24.37
lfemur -21.5931 9.64553 -11.2947
ltibia 39.7638
lfoot -5.33905 -2.2271
ltoes -23.0386
2260
root 0.748086 17.0161 14.1811 175.077 40.6893 -175.305
lowerback 14.5915 -1.34745 6.20653
upperback 7.47426 -0.187776 1.51885
thorax -0.302741 0.373863 -1.87917
lowerneck -8.26054 4.59835 0.461074
upperneck -9.71342 6.91194 1.65138
head -1.71241 3.70065 0.489087
rclavicle -4.16454e-014 3.97569e-014
rhumerus -224.067 -177.475 96.3111
rradius 108.182
rwrist -170.86
rhand -4.65236 -0.0848444
rfingers 7.12502
rthumb 21.1274 -28.9537
lclavicle -4.16454e-014 3.97569e-014
lhumerus -42.1754 -2.89245 85.4497
lradius 75.1637
lwrist 220.272
lhand -28.598 17.6915
lfingers 7.12502
lthumb -1.96351 47.6622
rfemur 14.3868 -0.622413 19.7425
rtibia 24.6327
rfoot -24.8863 -18.7205
rtoes -24.5228
lfemur -21.7922 9.64359 -11.2249
ltibia 40.1313
lfoot -5.89331 -2.22281
ltoes -23.3179
2261
root 0.760968 17.0076 14.1348 175.274 40.6332 -175.182
lowerback 14.4348 -1.32778 6.26124
upperback 7.52657 -0.167816 1.50634
thorax -0.162309 0.391421 -1.92525
lowerneck -8.62692 4.58007 0.610812
upperneck -9.58847 6.87534 1.60693
head -1.60504 3.68577 0.463152
rclavicle -5.61567e-014 4.53229e-014
rhumerus -223.558 -177.454 96.0822
rradius 108.369
rwrist -170.881
rhand -4.51469 -0.153844
rfingers 7.12502
rthumb 21.2596 -29.0079
lclavicle -5.61567e-014 4.53229e-014
lhumerus -42.468 -2.7167 84.8531
lradius 74.7219
lwrist 220.3
lhand -28.4082 17.7572
lfingers 7.12502
lthumb -1.78014 47.7295
rfemur 14.5868 -0.343141 19.9225
rtibia 24.365
rfoot -24.8995 -19.098
rtoes -24.683
lfemur -22.014 9.61994 -11.1252
ltibia 40.4929
lfoot -6.44877 -2.15586
ltoes -23.1663
2262
root 0.77437 16.9982 14.0861 175.443 40.6007 -175.03
lowerback 14.3854 -1.30828 6.31391
upperback 7.55541 -0.138554 1.49378
thorax -0.102955 0.410986 -1.97178
lowerneck -8.97607 4.56918 0.793366
upperneck -9.41947 6.84027 1.56949
head -1.48639 3.66909 0.434426
rclavicle -1.97791e-014 -1.15295e-014
rhumerus -223.083 -177.521 95.8461
rradius 108.589
rwrist -170.939
rhand -4.31304 -0.112642
rfingers 7.12502
rthumb 21.4533 -28.9448
lclavicle -1.97791e-014 -1.15295e-014
lhumerus -42.8192 -2.61806 84.2258
lradius 74.2499
lwrist 220.37
lhand -28.2164 17.8732
lfingers 7.12502
lthumb -1.59495 47.847
rfemur 14.8639 -0.0665961 20.1119
rtibia 24.0509
rfoot -24.9018 -19.4253
rtoes -24.9324
lfemur -22.1927 9.5495 -10.9759
ltibia 40.8633
lfoot -6.99522 -2.04705
ltoes -22.9792
2263
root 0.788593 16.9886 14.0344 175.6 40.5756 -174.857
lowerback 14.3627 -1.30057 6.333
upperback 7.60288 -0.123231 1.50967
thorax -0.0393823 0.42433 -1.96754
lowerneck -9.33599 4.57713 0.961183
upperneck -9.27373 6.82875 1.47618
head -1.37287 3.66554 0.391279
rclavicle 3.25013e-014 -1.59028e-015
rhumerus -222.544 -177.644 95.62
rradius 108.814
rwrist -170.981
rhand -4.06524 -0.121401
rfingers 7.12502
rthumb 21.6913 -28.9262
lclavicle 3.25013e-014 -1.59028e-015
lhumerus -43.1609 -2.48643 83.6003
lradius 73.7844
lwrist 220.424
lhand -27.9553 18.004
lfingers 7.12502
lthumb -1.34276 47.9796
rfemur 15.1972 0.210071 20.3164
rtibia 23.6962
rfoot -24.8579 -19.76
rtoes -25.1036
lfemur -22.3499 9.44864 -10.7872
ltibia 41.2374
lfoot -7.55064 -1.95389
ltoes -22.9305
